{"title":"Takers 2010 PPVRip IFLIX","uid":5980091,"size":1325401350,"categoryP":"video","categoryS":"movies","magnet":"?xt=urn:btih:aa8a0e2b6779575701026f947adeaff28af911b8&amp;dn=Takers+2010+PPVRip+IFLIX&amp;tr=udp%3A%2F%2Ftracker.openbittorrent.com%3A80&amp;tr=udp%3A%2F%2Fopen.demonii.com%3A1337&amp;tr=udp%3A%2F%2Ftracker.coppersurfer.tk%3A6969&amp;tr=udp%3A%2F%2Fexodus.desync.com%3A6969","seeders":2,"leechers":0,"uploader":"IwannaFan2","files":7,"time":1290560912,"description":"Filename:\nTakers 2010 PPVRip IFLIX\n &lt;a href=&quot;\nhttp://www.imdb.com/title/tt1135084/&quot; rel=&quot;nofollow&quot; target=&quot;_NEW&quot;&gt;\nhttp://www.imdb.com/title/tt1135084/&lt;/a&gt;\n\nVideo\nID                               : 0\nFormat                           : MPEG-4 Visual\nFormat settings, BVOP            : Yes\nFormat settings, QPel            : No\nFormat settings, GMC             : No warppoints\nFormat settings, Matrix          : Default (H.263)\nCodec ID                         : DX50\nCodec ID/Hint                    : DivX 5\nDuration                         : 1h 46mn\nBit rate                         : 1 500 Kbps\nWidth                            : 720 pixels\nHeight                           : 480 pixels\nDisplay aspect ratio             : 4:3\nFrame rate                       : 29.970 fps\nStandard                         : NTSC\nColor space                      : YUV\nChroma subsampling               : 4:2:0\nBit depth                        : 8 bits\nScan type                        : Progressive\nBits/(Pixel*Frame)               : 0.145\nStream size                      : 1.12 GiB (91%)\nWriting library                  : DivX 2151n\n\nAudio\nID                               : 1\nFormat                           : MPEG Audio\nFormat version                   : Version 1\nFormat profile                   : Layer 3\nCodec ID                         : 55\nCodec ID/Hint                    : MP3\nDuration                         : 1h 46mn\nBit rate mode                    : Constant\nBit rate                         : 128 Kbps\nChannel(s)                       : 2 channels\nSampling rate                    : 48.0 KHz\nStream size                      : 97.9 MiB (8%)\nAlignment                        : Aligned on interleaves\nInterleave, duration             : 33 ms (1.00 video frame)\n\nRelease Notes...\n\nAn IFLIX Release.\nMore to come very soon!\n\nLarger filesize and better quality then the previous releases. Atleast in our opinion :-)\nNo offence meant to any of the previous release groups.\n\nGreetings to all other groups out there. You all do awesome work and we greatly appreciate it.\nIFLIX :-)\n\n","torrent":{"xt":"urn:btih:aa8a0e2b6779575701026f947adeaff28af911b8","amp;dn":"Takers+2010+PPVRip+IFLIX","amp;tr":["udp%3A%2F%2Ftracker.openbittorrent.com%3A80","udp%3A%2F%2Fopen.demonii.com%3A1337","udp%3A%2F%2Ftracker.coppersurfer.tk%3A6969","udp%3A%2F%2Fexodus.desync.com%3A6969"],"infoHash":"aa8a0e2b6779575701026f947adeaff28af911b8","infoHashBuffer":{"type":"Buffer","data":[170,138,14,43,103,121,87,87,1,2,111,148,122,222,175,242,138,249,17,184]},"announce":[],"urlList":[]}}